<svg xmlns="http://www.w3.org/2000/svg" viewBox="0 0 133.2 176.04"><defs><style>.cls-1{fill:#81a6c0;}.cls-2{fill:#fff;}.cls-3{fill:#d94b19;}.cls-4{fill:#bfbfbf;}.cls-5{fill:gray;}.cls-6{fill:#f1e2c3;}.cls-7{fill:#415360;}</style></defs><title>Asset 4</title><g id="Layer_2" data-name="Layer 2"><g id="Layer_1-2" data-name="Layer 1"><rect class="cls-1" x="0.09" width="131.04" height="173.69"/><rect class="cls-1" x="2.16" y="2.35" width="131.04" height="173.69"/><path class="cls-2" d="M34.13,62.46,31.81,61.1a9.13,9.13,0,0,1-3.59-3.84,12.51,12.51,0,0,1-1.28-5.77V43.41a12.47,12.47,0,0,1,1.28-5.76,9.24,9.24,0,0,1,3.59-3.86,10.36,10.36,0,0,1,5.37-1.36,10.15,10.15,0,0,1,4.66,1.08,9.84,9.84,0,0,1,3.55,3.06,11.63,11.63,0,0,1,1.93,4.6H43.09a6.58,6.58,0,0,0-1.28-2.46A6.41,6.41,0,0,0,39.69,37a5.93,5.93,0,0,0-5.67.28,5.84,5.84,0,0,0-2.1,2.44,8.38,8.38,0,0,0-.75,3.65v8.08a8.4,8.4,0,0,0,.75,3.64A5.72,5.72,0,0,0,34,57.57a5.82,5.82,0,0,0,3.16.86,6,6,0,0,0,4.63-2.17,6.39,6.39,0,0,0,1.28-2.55h4.23a11.52,11.52,0,0,1-1.94,4.6,10,10,0,0,1-8.2,4.15Z"/><path class="cls-2" d="M56.16,61.38a7,7,0,0,1-3-3.12,11,11,0,0,1-1-4.95V49.89a10.83,10.83,0,0,1,1-4.89,7,7,0,0,1,3-3.09,10.75,10.75,0,0,1,9.35,0,7,7,0,0,1,3,3.09,10.83,10.83,0,0,1,1,4.89v3.48a10.86,10.86,0,0,1-1,4.91,7.07,7.07,0,0,1-3,3.1,10.66,10.66,0,0,1-9.35,0Zm8-4.2a5.62,5.62,0,0,0,1.18-3.81V49.89a5.51,5.51,0,0,0-1.18-3.78,4.86,4.86,0,0,0-6.7,0,5.51,5.51,0,0,0-1.19,3.78v3.48a5.63,5.63,0,0,0,1.19,3.81,4.83,4.83,0,0,0,6.7,0Z"/><path class="cls-2" d="M78.09,61.52a6.35,6.35,0,0,1-2.48-2.93A11.29,11.29,0,0,1,74.76,54V49.34a11.72,11.72,0,0,1,.83-4.63A6.22,6.22,0,0,1,78,41.79a7,7,0,0,1,3.81-1,6.35,6.35,0,0,1,3.41,1,7.07,7.07,0,0,1,2.5,2.74l-.42,4.29a4.9,4.9,0,0,0-.49-2.29A3.33,3.33,0,0,0,85.42,45a4.69,4.69,0,0,0-2.24-.49A4,4,0,0,0,80,45.82a5.24,5.24,0,0,0-1.12,3.58V54A5.09,5.09,0,0,0,80,57.51a4.06,4.06,0,0,0,3.17,1.24,4.58,4.58,0,0,0,2.24-.51,3.42,3.42,0,0,0,1.4-1.49,5.07,5.07,0,0,0,.49-2.33l.28,4.43a6.06,6.06,0,0,1-2,2.62A5.75,5.75,0,0,1,82,62.52,7.46,7.46,0,0,1,78.09,61.52Zm9.22-28.79h4.13V62.15H87.31Z"/><path class="cls-2" d="M103.4,62.46l-2.07-1.1a7.32,7.32,0,0,1-3.15-3.2,11.15,11.15,0,0,1-1.08-5.11V50.68a12.43,12.43,0,0,1,1-5.32,7.52,7.52,0,0,1,3-3.36A9.32,9.32,0,0,1,106,40.84a7.56,7.56,0,0,1,4.49,1.32,8.15,8.15,0,0,1,2.84,3.8,16.16,16.16,0,0,1,1,6v1.38H100.1V50h10.24A7.12,7.12,0,0,0,109,46,3.71,3.71,0,0,0,106,44.57a4.47,4.47,0,0,0-3.64,1.54A6.62,6.62,0,0,0,101,50.46v2.67a5.48,5.48,0,0,0,1.37,4,5.21,5.21,0,0,0,3.91,1.4,6.63,6.63,0,0,0,2.49-.5,7.1,7.1,0,0,0,2.2-1.42l2.72,2.71a11.55,11.55,0,0,1-3.5,2.32,10.12,10.12,0,0,1-3.91.82Z"/><path d="M42.17,147.32h1.25v8.91H42.17Zm.78,3.93H47.9v1.19H43Zm4.29-3.93h1.25v8.91H47.24Z"/><path d="M50,147.32h6.29v1.19H50Zm2.52.73h1.25v8.18H52.48Z"/><path d="M63.88,147.32h1.17v8.91H63.83v-6.68l.06.4-2.19,5h-.87l-2.2-4.92.06-.52v6.68H57.47v-8.91h1.17l2.62,5.88Z"/><path d="M67.26,147.32h1.25v8.91H67.26Zm.62,7.72H73v1.19h-5.1Z"/><path d="M79.82,156.32l-.7-.41A2.78,2.78,0,0,1,78,154.75a3.79,3.79,0,0,1-.39-1.75v-2.45a3.72,3.72,0,0,1,.39-1.74,2.75,2.75,0,0,1,1.09-1.17,3.12,3.12,0,0,1,1.63-.42,3.05,3.05,0,0,1,1.41.33,3,3,0,0,1,1.07.93,3.47,3.47,0,0,1,.59,1.39H82.54a2,2,0,0,0-.39-.74,2,2,0,0,0-.64-.51,1.73,1.73,0,0,0-.76-.18,1.69,1.69,0,0,0-1,.27,1.72,1.72,0,0,0-.64.74,2.51,2.51,0,0,0-.22,1.1V153a2.54,2.54,0,0,0,.22,1.1,1.72,1.72,0,0,0,.64.74,1.68,1.68,0,0,0,1,.26,1.82,1.82,0,0,0,.76-.16,1.89,1.89,0,0,0,.64-.49,2,2,0,0,0,.39-.78h1.28a3.51,3.51,0,0,1-.59,1.4,2.89,2.89,0,0,1-1.08.92,3,3,0,0,1-1.4.33Z"/><path d="M87.39,156.32l-.58-.12a4.92,4.92,0,0,1-1.08-.37,4.66,4.66,0,0,1-.93-.61l.78-1a3.28,3.28,0,0,0,1.12.66,3.83,3.83,0,0,0,1.33.23,2.64,2.64,0,0,0,1.5-.36,1.16,1.16,0,0,0,.54-1h0a1.07,1.07,0,0,0-.25-.74,1.5,1.5,0,0,0-.62-.41,6.55,6.55,0,0,0-1-.24h-.08l-.09,0a9,9,0,0,1-1.46-.35,2.1,2.1,0,0,1-1-.7,2.31,2.31,0,0,1-.4-1.46h0a2.65,2.65,0,0,1,.37-1.42,2.37,2.37,0,0,1,1.09-.89,4.35,4.35,0,0,1,1.71-.31,4.31,4.31,0,0,1,.94.11,4.45,4.45,0,0,1,.91.31,5.42,5.42,0,0,1,.89.52l-.72,1a3.77,3.77,0,0,0-1-.56,2.82,2.82,0,0,0-1-.19,2.33,2.33,0,0,0-1.42.37,1.18,1.18,0,0,0-.51,1h0a1,1,0,0,0,.26.72,1.69,1.69,0,0,0,.65.39,10.9,10.9,0,0,0,1.08.26h.23a7.41,7.41,0,0,1,1.35.39,2.17,2.17,0,0,1,.91.74,2.31,2.31,0,0,1,.36,1.38h0a2.47,2.47,0,0,1-.38,1.4,2.43,2.43,0,0,1-1.12.88,4.68,4.68,0,0,1-1.77.3Z"/><path d="M94.87,156.32l-.57-.12a4.58,4.58,0,0,1-1.08-.37,4.73,4.73,0,0,1-.94-.61l.78-1a3.38,3.38,0,0,0,1.12.66,3.89,3.89,0,0,0,1.34.23,2.68,2.68,0,0,0,1.5-.36,1.17,1.17,0,0,0,.53-1h0a1.06,1.06,0,0,0-.24-.74,1.47,1.47,0,0,0-.63-.41,6,6,0,0,0-1-.24h-.08l-.09,0a9.1,9.1,0,0,1-1.45-.35,2,2,0,0,1-1-.7,2.31,2.31,0,0,1-.4-1.46h0a2.57,2.57,0,0,1,.37-1.42,2.39,2.39,0,0,1,1.08-.89,4.35,4.35,0,0,1,1.71-.31,4.24,4.24,0,0,1,.94.11,4.53,4.53,0,0,1,.92.31,5.34,5.34,0,0,1,.88.52l-.71,1a4.1,4.1,0,0,0-1-.56,2.83,2.83,0,0,0-1-.19,2.35,2.35,0,0,0-1.42.37,1.17,1.17,0,0,0-.5,1h0a1,1,0,0,0,.26.72,1.69,1.69,0,0,0,.65.39,10.9,10.9,0,0,0,1.08.26h.23a7.65,7.65,0,0,1,1.35.39,2.14,2.14,0,0,1,.9.74,2.24,2.24,0,0,1,.37,1.38h0a2.47,2.47,0,0,1-.39,1.4,2.38,2.38,0,0,1-1.12.88,4.59,4.59,0,0,1-1.76.3Z"/><path d="M104,156a2.47,2.47,0,0,1-1-.81l1-.73a1.17,1.17,0,0,0,.5.46,1.54,1.54,0,0,0,.75.17,1.45,1.45,0,0,0,1.14-.45,1.92,1.92,0,0,0,.4-1.28v-6.07h1.25v6.08a3.48,3.48,0,0,1-.33,1.58,2.19,2.19,0,0,1-1,1,3.06,3.06,0,0,1-1.51.34A2.85,2.85,0,0,1,104,156Z"/><path d="M112.32,156.32l-.58-.12a4.66,4.66,0,0,1-1.07-.37,4.46,4.46,0,0,1-.94-.61l.78-1a3.28,3.28,0,0,0,1.12.66,3.87,3.87,0,0,0,1.33.23,2.7,2.7,0,0,0,1.51-.36,1.17,1.17,0,0,0,.53-1h0a1.06,1.06,0,0,0-.24-.74,1.47,1.47,0,0,0-.63-.41,6,6,0,0,0-1-.24h-.08l-.09,0a9.25,9.25,0,0,1-1.46-.35,2.1,2.1,0,0,1-1-.7,2.37,2.37,0,0,1-.39-1.46h0a2.57,2.57,0,0,1,.37-1.42,2.29,2.29,0,0,1,1.08-.89,4.35,4.35,0,0,1,1.71-.31,4.24,4.24,0,0,1,.94.11,4.45,4.45,0,0,1,.91.31,5.42,5.42,0,0,1,.89.52l-.71,1a4,4,0,0,0-1-.56,2.74,2.74,0,0,0-1-.19,2.35,2.35,0,0,0-1.42.37,1.18,1.18,0,0,0-.51,1h0a1,1,0,0,0,.26.72,1.85,1.85,0,0,0,.65.39c.26.08.63.17,1.09.26h.22a7.79,7.79,0,0,1,1.36.39,2.14,2.14,0,0,1,.9.74,2.24,2.24,0,0,1,.37,1.38h0a2.47,2.47,0,0,1-.39,1.4,2.43,2.43,0,0,1-1.12.88,4.68,4.68,0,0,1-1.77.3Z"/><polygon class="cls-2" points="105.45 71.14 112.4 75.85 119.35 80.55 114.69 83.92 110.03 87.29 107.74 79.22 105.45 71.14"/><polygon class="cls-3" points="102.13 70.72 109.08 75.42 116.03 80.12 111.37 83.49 106.71 86.86 104.42 78.79 102.13 70.72"/><polygon class="cls-4" points="131.05 0 133.14 2.35 133.14 176.04 131.05 173.69 131.05 0"/><polygon class="cls-5" points="0 173.69 2.09 176.04 133.14 176.04 131.05 173.69 0 173.69"/><polygon class="cls-6" points="28.77 25.33 22.05 22.71 15.32 20.08 18.92 16.2 22.52 12.31 25.64 18.82 28.77 25.33"/><polygon class="cls-7" points="132.56 175.78 132.1 175.78 2.21 175.78 0.58 173.95 130.29 173.95 130.93 173.95 131.28 173.95 131.05 173.69 0 173.69 2.09 176.04 133.14 176.04 132.91 175.78 132.56 175.78"/></g></g></svg>