<svg xmlns="http://www.w3.org/2000/svg" viewBox="0 0 133.2 176.04"><defs><style>.cls-1{fill:#d94b19;}.cls-2{fill:#fff;}.cls-3{fill:#81a6c0;}.cls-4{fill:#bfbfbf;}.cls-5{fill:gray;}.cls-6{fill:#f1e2c3;}.cls-7{fill:#6d260d;}</style></defs><title>Asset 3</title><g id="Layer_2" data-name="Layer 2"><g id="Layer_1-2" data-name="Layer 1"><polygon class="cls-1" points="131.13 2.35 131.13 0 0.09 0 0.09 173.69 2.17 173.69 2.17 176.04 133.21 176.04 133.21 2.35 131.13 2.35"/><path d="M42.17,147.32h1.25v8.91H42.17Zm.78,3.93H47.9v1.19H43Zm4.29-3.93h1.25v8.91H47.24Z"/><path d="M50,147.32h6.29v1.19H50Zm2.52.73h1.25v8.18H52.48Z"/><path d="M63.88,147.32h1.17v8.91H63.83v-6.68l.06.4-2.19,5h-.87l-2.2-4.92.06-.52v6.68H57.47v-8.91h1.17l2.62,5.88Z"/><path d="M67.26,147.32h1.25v8.91H67.26Zm.62,7.72H73v1.19h-5.1Z"/><path d="M79.82,156.32l-.7-.41A2.78,2.78,0,0,1,78,154.75a3.79,3.79,0,0,1-.39-1.75v-2.45a3.72,3.72,0,0,1,.39-1.74,2.75,2.75,0,0,1,1.09-1.17,3.12,3.12,0,0,1,1.63-.42,3.05,3.05,0,0,1,1.41.33,3,3,0,0,1,1.07.93,3.47,3.47,0,0,1,.59,1.39H82.54a2,2,0,0,0-.39-.74,2.06,2.06,0,0,0-.64-.51,1.73,1.73,0,0,0-.76-.18,1.69,1.69,0,0,0-1,.27,1.72,1.72,0,0,0-.64.74,2.51,2.51,0,0,0-.23,1.1V153a2.54,2.54,0,0,0,.23,1.1,1.72,1.72,0,0,0,.64.74,1.68,1.68,0,0,0,1,.26,1.82,1.82,0,0,0,.76-.16,2,2,0,0,0,.64-.49,2,2,0,0,0,.39-.78h1.28a3.45,3.45,0,0,1-.59,1.4,2.89,2.89,0,0,1-1.08.92,3,3,0,0,1-1.4.33Z"/><path d="M87.39,156.32l-.58-.12a4.45,4.45,0,0,1-1.08-.37,4.66,4.66,0,0,1-.93-.61l.78-1a3.28,3.28,0,0,0,1.12.66,3.83,3.83,0,0,0,1.33.23,2.64,2.64,0,0,0,1.5-.36,1.16,1.16,0,0,0,.54-1h0a1.08,1.08,0,0,0-.25-.74,1.5,1.5,0,0,0-.62-.41,6.55,6.55,0,0,0-1-.24h-.08l-.09,0a9,9,0,0,1-1.46-.35,2.1,2.1,0,0,1-1-.7,2.31,2.31,0,0,1-.4-1.46h0a2.65,2.65,0,0,1,.37-1.42,2.39,2.39,0,0,1,1.08-.89,4.42,4.42,0,0,1,1.71-.31,4.33,4.33,0,0,1,1,.11,4.66,4.66,0,0,1,.91.31,5.42,5.42,0,0,1,.89.52l-.72,1a3.77,3.77,0,0,0-1-.56,2.83,2.83,0,0,0-1-.19,2.32,2.32,0,0,0-1.41.37,1.18,1.18,0,0,0-.51,1h0a1,1,0,0,0,.26.72,1.57,1.57,0,0,0,.65.39,10.9,10.9,0,0,0,1.08.26h.23a7.41,7.41,0,0,1,1.35.39,2.17,2.17,0,0,1,.91.74,2.31,2.31,0,0,1,.36,1.38h0a2.53,2.53,0,0,1-.38,1.4,2.43,2.43,0,0,1-1.12.88,4.68,4.68,0,0,1-1.77.3Z"/><path d="M94.87,156.32l-.57-.12a4.17,4.17,0,0,1-1.08-.37,4.73,4.73,0,0,1-.94-.61l.78-1a3.38,3.38,0,0,0,1.12.66,3.89,3.89,0,0,0,1.34.23,2.68,2.68,0,0,0,1.5-.36,1.17,1.17,0,0,0,.53-1h0a1.08,1.08,0,0,0-.24-.74,1.47,1.47,0,0,0-.63-.41,6,6,0,0,0-1-.24h-.08l-.09,0a8.83,8.83,0,0,1-1.45-.35,2,2,0,0,1-1-.7,2.31,2.31,0,0,1-.4-1.46h0a2.57,2.57,0,0,1,.37-1.42,2.39,2.39,0,0,1,1.08-.89,4.35,4.35,0,0,1,1.71-.31,4.24,4.24,0,0,1,.94.11,4.75,4.75,0,0,1,.92.31,5.34,5.34,0,0,1,.88.52l-.71,1a4.1,4.1,0,0,0-1-.56,2.83,2.83,0,0,0-1-.19,2.35,2.35,0,0,0-1.42.37,1.17,1.17,0,0,0-.5,1h0a1,1,0,0,0,.26.72,1.57,1.57,0,0,0,.65.39,10.9,10.9,0,0,0,1.08.26h.23a7.65,7.65,0,0,1,1.35.39,2.14,2.14,0,0,1,.9.74,2.24,2.24,0,0,1,.37,1.38h0a2.45,2.45,0,0,1-.39,1.4,2.38,2.38,0,0,1-1.12.88,4.59,4.59,0,0,1-1.76.3Z"/><path d="M104,156a2.47,2.47,0,0,1-1-.81l1-.73a1.26,1.26,0,0,0,.5.47,1.65,1.65,0,0,0,.75.16,1.42,1.42,0,0,0,1.13-.45,1.87,1.87,0,0,0,.41-1.28v-6.07h1.25v6.08a3.48,3.48,0,0,1-.33,1.58,2.19,2.19,0,0,1-1,1,3.06,3.06,0,0,1-1.51.34A2.82,2.82,0,0,1,104,156Z"/><path d="M112.32,156.32l-.58-.12a4.23,4.23,0,0,1-1.07-.37,4.46,4.46,0,0,1-.94-.61l.78-1a3.28,3.28,0,0,0,1.12.66,3.87,3.87,0,0,0,1.33.23,2.7,2.7,0,0,0,1.51-.36,1.17,1.17,0,0,0,.53-1h0a1.08,1.08,0,0,0-.24-.74,1.47,1.47,0,0,0-.63-.41,6,6,0,0,0-1-.24h-.08l-.09,0a9.25,9.25,0,0,1-1.46-.35,2.1,2.1,0,0,1-1-.7,2.37,2.37,0,0,1-.39-1.46h0a2.57,2.57,0,0,1,.37-1.42,2.29,2.29,0,0,1,1.08-.89,4.35,4.35,0,0,1,1.71-.31,4.24,4.24,0,0,1,.94.11,4.45,4.45,0,0,1,.91.31,5.42,5.42,0,0,1,.89.52l-.71,1a4,4,0,0,0-1-.56,2.74,2.74,0,0,0-1-.19,2.35,2.35,0,0,0-1.42.37,1.18,1.18,0,0,0-.51,1h0a1,1,0,0,0,.26.72,1.71,1.71,0,0,0,.65.39,10.54,10.54,0,0,0,1.09.26h.22a7.41,7.41,0,0,1,1.35.39,2.11,2.11,0,0,1,.91.74,2.24,2.24,0,0,1,.37,1.38h0a2.31,2.31,0,0,1-1.51,2.28,4.68,4.68,0,0,1-1.77.3Z"/><polygon class="cls-2" points="105.45 71.14 112.4 75.85 119.35 80.55 114.69 83.92 110.03 87.29 107.74 79.22 105.45 71.14"/><polygon class="cls-3" points="102.13 70.72 109.08 75.42 116.03 80.12 111.37 83.49 106.71 86.86 104.42 78.79 102.13 70.72"/><polygon class="cls-4" points="131.05 0 133.14 2.35 133.14 176.04 131.05 173.69 131.05 0"/><polygon class="cls-5" points="0 173.69 2.09 176.04 133.14 176.04 131.05 173.69 0 173.69"/><polygon class="cls-6" points="28.77 25.33 22.05 22.71 15.32 20.08 18.92 16.2 22.52 12.31 25.64 18.82 28.77 25.33"/><polygon class="cls-7" points="132.56 175.78 132.1 175.78 2.21 175.78 0.58 173.95 130.29 173.95 130.93 173.95 131.28 173.95 131.05 173.69 0 173.69 2.09 176.04 133.14 176.04 132.91 175.78 132.56 175.78"/><path class="cls-2" d="M28.25,33.89h4.24V64.12H28.25Zm2.18,14.47H40.1a4.45,4.45,0,0,0,2.41-.64,4.23,4.23,0,0,0,1.61-1.83,6.21,6.21,0,0,0,.58-2.72,6.29,6.29,0,0,0-.58-2.75,4.32,4.32,0,0,0-1.61-1.84,4.46,4.46,0,0,0-2.41-.65H30.43v-4H40a9.59,9.59,0,0,1,4.76,1.16,8,8,0,0,1,3.19,3.25,11,11,0,0,1,0,9.72,8,8,0,0,1-3.19,3.23A9.58,9.58,0,0,1,40,52.4H30.43Z"/><path class="cls-2" d="M58.58,58.55a1.91,1.91,0,0,0,.35,1.22,1.17,1.17,0,0,0,1,.42h2v4h-2.5a4.72,4.72,0,0,1-3.73-1.5,6.17,6.17,0,0,1-1.32-4.22V33.89h4.24Z"/><path class="cls-2" d="M67.4,62.78a6.16,6.16,0,0,1-2-5A6.1,6.1,0,0,1,67.23,53q1.81-1.6,5.47-1.6h6.13l.29,3.41h-6.4a3.55,3.55,0,0,0-2.48.74,2.86,2.86,0,0,0-.82,2.25,2.78,2.78,0,0,0,1.09,2.43,5.61,5.61,0,0,0,3.31.79,9.54,9.54,0,0,0,3.63-.52,1.7,1.7,0,0,0,1.2-1.62l.43,3a4.83,4.83,0,0,1-1.38,1.43,5.76,5.76,0,0,1-1.9.84,9.54,9.54,0,0,1-2.43.28Q69.37,64.43,67.4,62.78ZM78.65,50.44a4.52,4.52,0,0,0-1.14-3.29A4.21,4.21,0,0,0,74.3,46a8.11,8.11,0,0,0-2.53.4,7.51,7.51,0,0,0-2.19,1.1l-3.1-2.12a8.19,8.19,0,0,1,3.24-2.3,11.58,11.58,0,0,1,4.46-.82,10.27,10.27,0,0,1,4.59,1,6.5,6.5,0,0,1,2.91,2.74,8.76,8.76,0,0,1,1,4.34V64.12h-4Z"/><path class="cls-2" d="M89.12,42.54h4.25V64.12H89.12Zm13.1,8.51A4.93,4.93,0,0,0,101,47.51a5.13,5.13,0,0,0-6.54-.14,4.08,4.08,0,0,0-1.13,3.09l-.44-4.15a7.6,7.6,0,0,1,2.61-3,6.3,6.3,0,0,1,3.56-1.06,6.7,6.7,0,0,1,5.44,2.3,9.86,9.86,0,0,1,1.92,6.5V64.12h-4.24Z"/></g></g></svg>