<svg xmlns="http://www.w3.org/2000/svg" xmlns:xlink="http://www.w3.org/1999/xlink" viewBox="0 0 363.5 467.76"><defs><style>.cls-1{fill:#415360;}.cls-2{fill:#81a6c0;}.cls-3{fill:#313e48;}.cls-4{fill:#fff;}.cls-5{fill:url(#linear-gradient);}.cls-6{fill:#617d90;}</style><linearGradient id="linear-gradient" x1="3" y1="12.77" x2="360.5" y2="12.77" gradientUnits="userSpaceOnUse"><stop offset="0" stop-color="#cddbe6"/><stop offset="1" stop-color="#81a6c0"/></linearGradient></defs><title>Asset 9</title><g id="Layer_2" data-name="Layer 2"><g id="Layer_1-2" data-name="Layer 1"><rect class="cls-1" x="-52.13" y="52.13" width="467.76" height="363.5" transform="translate(415.63 52.13) rotate(90)"/><rect class="cls-2" x="3" y="3" width="357.49" height="461.76"/><rect class="cls-3" x="-29.12" y="75.16" width="421.74" height="317.44" transform="translate(415.63 52.13) rotate(90)"/><rect class="cls-4" x="-24.12" y="80.17" width="411.73" height="307.42" transform="translate(415.63 52.13) rotate(90)"/><polygon class="cls-5" points="3 2.76 23.03 22.77 340.47 22.77 360.5 2.76 3 2.76"/><polygon class="cls-6" points="340.47 22.77 360.5 2.76 360.5 465 340.47 444.99 340.47 22.77"/><polygon class="cls-6" points="340.47 22.77 360.5 2.76 360.5 465 340.47 444.99 340.47 22.77"/><polygon class="cls-1" points="3 465 23.03 444.99 340.47 444.99 360.5 465 3 465"/></g></g></svg>