<svg xmlns="http://www.w3.org/2000/svg" xmlns:xlink="http://www.w3.org/1999/xlink" viewBox="0 0 307.42 411.73"><defs><style>.cls-1{fill:none;}.cls-2{fill:#c79f6a;}.cls-3{fill:#391f0e;}.cls-4{fill:#eadb1c;}.cls-5{clip-path:url(#clip-path);}.cls-6{fill:#e9da1c;}</style><clipPath id="clip-path"><circle id="SVGID" class="cls-1" cx="145.97" cy="211.17" r="61.02"/></clipPath></defs><title>cafe_logo</title><g id="Layer_2" data-name="Layer 2"><g id="Layer_1-2" data-name="Layer 1"><rect class="cls-2" x="-52.15" y="52.15" width="411.73" height="307.42" transform="translate(359.58 52.15) rotate(90)"/><circle class="cls-3" cx="153.71" cy="205.87" r="85.85"/><circle class="cls-4" cx="153.71" cy="205.87" r="76.98"/><circle class="cls-3" cx="153.71" cy="205.87" r="66.53"/><g class="cls-5"><path class="cls-6" d="M139.36,175.37l-.06-.07a6.53,6.53,0,0,0-9.22,0L45.35,260a6.52,6.52,0,0,0,0,9.23l.06.06a6.52,6.52,0,0,0,9.23,0l84.72-84.73A6.51,6.51,0,0,0,139.36,175.37Z"/><rect class="cls-6" x="32.57" y="247.48" width="132.87" height="13.13" rx="6.52" transform="translate(-150.65 144.41) rotate(-45)"/><path class="cls-6" d="M152.65,238.85l-.06-.06a6.52,6.52,0,0,0-9.23,0L58.64,323.51a6.52,6.52,0,0,0,0,9.23l.06.06a6.51,6.51,0,0,0,9.22,0l84.73-84.73A6.51,6.51,0,0,0,152.65,238.85Z"/></g><path class="cls-4" d="M172.1,154.84s-1.36,15.23-17.45,17.45c0,0,15.23,1.36,17.45,17.44,0,0,1.36-15.22,17.44-17.44C189.54,172.29,174.32,170.93,172.1,154.84Z"/><path class="cls-4" d="M199.55,192.32s-.84,9.37-10.74,10.73c0,0,9.37.84,10.74,10.74,0,0,.84-9.37,10.73-10.74C210.28,203.05,200.91,202.22,199.55,192.32Z"/><path class="cls-4" d="M177.47,224.21a6.13,6.13,0,0,1-5.37,5.37,6.14,6.14,0,0,1,5.37,5.37,6.13,6.13,0,0,1,5.36-5.37A6.13,6.13,0,0,1,177.47,224.21Z"/></g></g></svg>