<svg xmlns="http://www.w3.org/2000/svg" viewBox="0 0 109.73 39.88"><defs><style>.cls-1{fill:#fff;stroke:#f29545;stroke-miterlimit:10;stroke-width:3px;}.cls-2{fill:#f29545;}</style></defs><title>exit</title><g id="Layer_2" data-name="Layer 2"><g id="Layer_1-2" data-name="Layer 1"><rect class="cls-1" x="36.42" y="-33.42" width="36.88" height="106.73" rx="4.72" transform="translate(74.81 -34.92) rotate(90)"/><rect class="cls-2" x="72.36" y="17.78" width="24.66" height="4.4"/><polygon class="cls-2" points="90.3 29.49 99.81 19.98 96.7 16.87 84.08 29.49 90.3 29.49"/><polygon class="cls-2" points="90.26 10.43 84.08 10.43 84.06 10.45 96.7 23.09 99.81 19.98 90.26 10.43"/><path class="cls-2" d="M14,11.37H26.79v3.17h-9v3.67h8.3v2.93h-8.3v4.2H27v3.17H14Z"/><path class="cls-2" d="M33.73,19.53l-5.52-8.16h4.37l3.36,5.47,3.48-5.47h4.13l-5.5,8.19,6,9H39.54l-3.75-5.93L32,28.51H27.73Z"/><path class="cls-2" d="M45.54,11.37h3.77V28.51H45.54Z"/><path class="cls-2" d="M56.41,14.54H51.27V11.37h14v3.17H60.18v14H56.41Z"/></g></g></svg>