<svg xmlns="http://www.w3.org/2000/svg" viewBox="0 0 307.42 411.73"><defs><style>.cls-1{fill:#1e213f;}.cls-2{fill:#47d184;}.cls-3{fill:#fff;}.cls-4{fill:#dc0d28;}</style></defs><title>fruit_logo</title><g id="Layer_2" data-name="Layer 2"><g id="Layer_1-2" data-name="Layer 1"><rect class="cls-1" x="-52.15" y="52.15" width="411.73" height="307.42" transform="translate(359.58 52.15) rotate(90)"/><path class="cls-2" d="M75.84,206.8a4.82,4.82,0,0,0-2-3.59,7.79,7.79,0,0,0-4.73-1.29,8.86,8.86,0,0,0-3.42.58,4.76,4.76,0,0,0-2.15,1.55,3.75,3.75,0,0,0-.73,2.26,3.24,3.24,0,0,0,.45,1.83,4.48,4.48,0,0,0,1.35,1.36,10.35,10.35,0,0,0,2,1,19.55,19.55,0,0,0,2.41.69l3.52.84a24.53,24.53,0,0,1,4.71,1.53A14.27,14.27,0,0,1,81,215.9a9.69,9.69,0,0,1,2.43,3.29,10.3,10.3,0,0,1,.9,4.35,10.87,10.87,0,0,1-1.83,6.24,11.73,11.73,0,0,1-5.21,4.07,20.86,20.86,0,0,1-8.18,1.44,21.59,21.59,0,0,1-8.27-1.46,12.1,12.1,0,0,1-5.47-4.3,13,13,0,0,1-2-7.1h8a6.06,6.06,0,0,0,1.13,3.29,6.33,6.33,0,0,0,2.7,2,10.83,10.83,0,0,0,3.85.65,10,10,0,0,0,3.66-.61A5.68,5.68,0,0,0,75.1,226a3.93,3.93,0,0,0,.86-2.5,3.23,3.23,0,0,0-.79-2.22,6,6,0,0,0-2.26-1.54,22.45,22.45,0,0,0-3.61-1.14L65,217.54a17.81,17.81,0,0,1-7.83-3.77,8.7,8.7,0,0,1-2.85-6.91,10.19,10.19,0,0,1,1.89-6.22,12.8,12.8,0,0,1,5.3-4.15A18.66,18.66,0,0,1,69.2,195a18,18,0,0,1,7.62,1.5,12,12,0,0,1,5.09,4.15,11,11,0,0,1,1.88,6.16Z"/><path class="cls-3" d="M125.93,215.13A22.67,22.67,0,0,1,123.5,226a17,17,0,0,1-6.59,6.88,19.74,19.74,0,0,1-18.72,0A17,17,0,0,1,91.62,226a25.85,25.85,0,0,1,0-21.8,16.77,16.77,0,0,1,6.57-6.85,19.6,19.6,0,0,1,18.72,0,16.76,16.76,0,0,1,6.59,6.85A22.69,22.69,0,0,1,125.93,215.13Zm-8.41,0a17.47,17.47,0,0,0-1.24-7,9.62,9.62,0,0,0-14-4.33,9.57,9.57,0,0,0-3.48,4.33,20.56,20.56,0,0,0,0,14,9.59,9.59,0,0,0,3.48,4.32,10,10,0,0,0,10.49,0,9.44,9.44,0,0,0,3.47-4.32A17.52,17.52,0,0,0,117.52,215.13Zm60.53,19.6h-8.89l13.54-39.2h10.68l13.51,39.2H198l-9.82-30.24h-.31Zm-.56-15.41h21v6.47h-21Zm34.12-23.79h10.23l10.79,26.34h.46l10.8-26.34h10.22v39.2h-8V209.22h-.32L235.6,234.54h-5.47L220,209.12h-.33v25.61h-8Z"/><path class="cls-4" d="M146,234.73h-13.9v-39.2h14a20.75,20.75,0,0,1,10.18,2.35,15.89,15.89,0,0,1,6.57,6.72,25,25,0,0,1,0,21,15.89,15.89,0,0,1-6.6,6.76A21,21,0,0,1,146,234.73Zm-5.61-7.1h5.26a13.27,13.27,0,0,0,6.18-1.3,8.34,8.34,0,0,0,3.79-4.08,17,17,0,0,0,1.29-7.16,16.85,16.85,0,0,0-1.29-7.1,8.26,8.26,0,0,0-3.77-4.06,13.27,13.27,0,0,0-6.18-1.3h-5.28Z"/></g></g></svg>