<svg xmlns="http://www.w3.org/2000/svg" xmlns:xlink="http://www.w3.org/1999/xlink" viewBox="0 0 138.59 65.15"><defs><style>.cls-1{fill:#f2af5e;}.cls-2{fill:url(#linear-gradient);}.cls-3{fill:url(#linear-gradient-2);}.cls-4{fill:url(#linear-gradient-3);}</style><linearGradient id="linear-gradient" x1="155.43" y1="31.93" x2="-33.76" y2="31.93" gradientUnits="userSpaceOnUse"><stop offset="0" stop-color="#d94b19" stop-opacity="0.8"/><stop offset="1" stop-color="#f2af5e" stop-opacity="0"/></linearGradient><linearGradient id="linear-gradient-2" x1="5.68" y1="-0.75" x2="63.73" y2="58.2" gradientUnits="userSpaceOnUse"><stop offset="0" stop-color="#fff" stop-opacity="0.8"/><stop offset="1" stop-color="#f2af5e" stop-opacity="0"/></linearGradient><linearGradient id="linear-gradient-3" x1="69.15" y1="54.59" x2="69.45" y2="72.89" xlink:href="#linear-gradient-2"/></defs><title>Asset 8</title><g id="Layer_2" data-name="Layer 2"><g id="Layer_1-2" data-name="Layer 1"><polygon class="cls-1" points="69.3 0 103.95 31.93 138.59 63.86 69.3 63.86 0 63.86 34.65 31.93 69.3 0"/><polygon class="cls-2" points="69.3 0 103.95 31.93 138.59 63.86 69.3 63.86 0 63.86 34.65 31.93 69.3 0"/><polygon class="cls-3" points="69.3 0 103.95 31.93 138.59 63.86 69.3 63.86 0 63.86 34.65 31.93 69.3 0"/><ellipse class="cls-1" cx="69.3" cy="63.86" rx="69.3" ry="1.29"/><ellipse class="cls-4" cx="69.3" cy="63.86" rx="69.3" ry="1.29"/></g></g></svg>