<svg xmlns="http://www.w3.org/2000/svg" xmlns:xlink="http://www.w3.org/1999/xlink" viewBox="0 0 369.1 468"><defs><style>.cls-1,.cls-17,.cls-19,.cls-20,.cls-21{fill:none;}.cls-2{fill:#9e260a;}.cls-3{fill:#d94b19;}.cls-4{fill:#841c08;}.cls-5{fill:#fff;}.cls-6{fill:url(#linear-gradient);}.cls-7{fill:#c1360c;}.cls-8{fill:url(#linear-gradient-2);}.cls-9{fill:#6281cd;}.cls-10{clip-path:url(#clip-path);}.cls-11{fill:#36200b;}.cls-12{fill:#42210b;}.cls-13{fill:#c1272d;}.cls-14{fill:#f2b365;}.cls-15{fill:#ffdfb7;}.cls-16{fill:#cd5257;}.cls-17{stroke:#d98235;}.cls-17,.cls-19,.cls-20,.cls-21{stroke-linecap:round;stroke-linejoin:round;}.cls-17,.cls-19{stroke-width:2px;}.cls-18{fill:#d98235;}.cls-19{stroke:#36200b;}.cls-20,.cls-21{stroke:#cd5257;stroke-width:3px;}.cls-21{stroke-dasharray:12.26 12.26;}.cls-22{fill:#603813;}.cls-23{fill:url(#linear-gradient-3);}.cls-24{fill:#301c0a;}.cls-25{fill:#c6ab95;}.cls-26{fill:url(#linear-gradient-4);}.cls-27{fill:url(#linear-gradient-5);}</style><linearGradient id="linear-gradient" x1="8.31" y1="12.77" x2="366.1" y2="12.77" gradientUnits="userSpaceOnUse"><stop offset="0" stop-color="#ffa13b"/><stop offset="1" stop-color="#d94b19"/></linearGradient><linearGradient id="linear-gradient-2" x1="356.07" y1="-3.74" x2="356.07" y2="465" gradientUnits="userSpaceOnUse"><stop offset="0" stop-opacity="0.1"/><stop offset="1" stop-color="#d94b19" stop-opacity="0"/></linearGradient><clipPath id="clip-path"><rect id="SVGID" class="cls-1" x="33.36" y="28.03" width="307.68" height="411.94"/></clipPath><linearGradient id="linear-gradient-3" x1="167.62" y1="476.45" x2="241.91" y2="238.71" gradientUnits="userSpaceOnUse"><stop offset="0" stop-color="#3a210c"/><stop offset="1" stop-color="#603813" stop-opacity="0"/></linearGradient><linearGradient id="linear-gradient-4" x1="1.76" y1="71.5" x2="181.9" y2="7.55" gradientUnits="userSpaceOnUse"><stop offset="0" stop-color="#fff" stop-opacity="0.5"/><stop offset="1" stop-color="#6281cd" stop-opacity="0"/></linearGradient><linearGradient id="linear-gradient-5" x1="98.67" y1="-10.1" x2="158.07" y2="164.51" xlink:href="#linear-gradient-4"/></defs><title>profile_frame</title><g id="Layer_2" data-name="Layer 2"><g id="Layer_1-2" data-name="Layer 1"><rect class="cls-2" x="-46.8" y="52.1" width="468" height="363.8" transform="translate(421.2 46.8) rotate(90)"/><rect class="cls-3" x="8.31" y="3" width="357.79" height="461.99"/><rect class="cls-4" x="-23.77" y="75.15" width="421.95" height="317.7" transform="translate(421.2 46.8) rotate(90)"/><rect class="cls-5" x="-18.77" y="80.16" width="411.94" height="307.68" transform="translate(421.2 46.8) rotate(90)"/><polygon class="cls-6" points="8.31 2.76 28.35 22.78 346.05 22.78 366.1 2.76 8.31 2.76"/><polygon class="cls-7" points="346.05 22.78 366.1 2.76 366.1 465.24 346.05 445.22 346.05 22.78"/><polygon class="cls-8" points="346.05 22.78 366.1 2.76 366.1 465.24 346.05 445.22 346.05 22.78"/><polygon class="cls-2" points="8.31 465.24 28.35 445.22 346.05 445.22 366.1 465.24 8.31 465.24"/><rect class="cls-9" x="33.36" y="28.03" width="307.68" height="411.94"/><g class="cls-10"><path class="cls-11" d="M179.34,462.64H355.83s11.74-77.7-19-137c-19.46-37.48-20.57-65.92-18.47-87.6a111,111,0,0,0-7.77-36.38L209.86,249.47Z"/><path class="cls-12" d="M179.34,462.64H355.83s11.74-77.7-19-137c-19.46-37.48-20.57-65.92-18.47-87.6a111,111,0,0,0-7.77-36.38L209.86,249.47Z"/><path class="cls-13" d="M178,285.94h0c0,.07,0,.15,0,.22S178,286,178,285.94Z"/><path class="cls-13" d="M177.69,290c0-.25.05-.51.07-.77C177.74,289.51,177.72,289.77,177.69,290Z"/><path class="cls-13" d="M316.68,343.57c-9.5-48.64-96.74-12.3-96.74-12.3-7.83-7.83-2.24-24.38-2.24-24.38l-.77-.51c-11.69-1.31-24.84-5.35-39.6-13h0c-3.7,28.15-21.12,49.06-58.62,32.34,0,0-21-10.63-36.63,9.59a74.33,74.33,0,0,0-9.52,23.17A98,98,0,0,0,70.46,374c2.4,41.27,26.44,88.69,26.44,88.69l196.3,2.24S326.19,392.2,316.68,343.57Z"/><path class="cls-14" d="M163.07,293.44s30.41,40.44,56.87,37.83c0,0-12.79-22.18,10.47-42.86Z"/><path class="cls-15" d="M178,286.34c-.05.93-.12,1.86-.19,2.79C177.84,288.2,177.91,287.28,178,286.34Z"/><path class="cls-15" d="M177.77,289.13l-.12,1.25Z"/><path class="cls-15" d="M178,285.94h0c0,.13,0,.27,0,.4C178,286.21,178,286.07,178,285.94Z"/><path class="cls-15" d="M219.94,331.27c-16.4,1.61-34.3-13.29-45.56-24.87-6.06,18.13-19.88,29.82-43.92,23.48h0s69.73,78.53,129.18-9.94A205.69,205.69,0,0,0,219.94,331.27Z"/><path class="cls-15" d="M177.44,292.36q.12-1,.21-2c-.06.67-.14,1.33-.21,2Z"/><path class="cls-15" d="M219.05,306.59h.16a72.56,72.56,0,0,0,10.39.13h0a61.74,61.74,0,0,0,33.64-12.31l0,0a69.32,69.32,0,0,0,6.4-5.39l.11-.11c.39-.36.77-.73,1.15-1.11l0,0q2.31-2.29,4.41-4.76l.2-.23.92-1.11c.06-.07.11-.14.17-.2,1-1.19,1.9-2.41,2.8-3.64l.13-.18c.26-.36.52-.71.77-1.07l.29-.41.71-1c.1-.14.19-.28.28-.42.77-1.14,1.5-2.29,2.21-3.45l.27-.44.57-1,.35-.59c.18-.31.35-.62.53-.92l.36-.65.5-.89.38-.72c.26-.49.52-1,.77-1.47.14-.26.27-.52.4-.78l.4-.8.39-.79c.12-.26.25-.51.37-.77s.27-.56.4-.85l.33-.71c.19-.41.37-.81.55-1.22.11-.24.21-.48.31-.71l.47-1.1.27-.64c.13-.31.26-.62.38-.94s.18-.42.26-.63l.39-1,.21-.55c.19-.5.38-1,.56-1.49a1,1,0,0,1,.06-.16l.48-1.36.17-.5c.12-.34.23-.68.34-1l.18-.53.33-1c0-.15.1-.31.14-.46.15-.48.3-1,.44-1.44.34-1.14.68-2.26,1-3.37.12-.39.23-.77.35-1.15.22-.71.44-1.41.65-2.1.14-.46.28-.9.43-1.35l.57-1.8c.14-.47.29-.92.44-1.38l.54-1.66c.15-.47.31-.93.46-1.39s.34-1,.51-1.54.31-.91.46-1.36.33-1,.5-1.49l.45-1.3c.16-.48.33-1,.49-1.43s.3-.83.44-1.25.33-.93.5-1.39l.42-1.19c.16-.45.32-.91.49-1.35s.27-.77.41-1.14l.48-1.31.39-1.07c.17-.44.33-.88.49-1.31l.36-1c.17-.43.33-.86.49-1.28s.23-.62.35-.92.33-.87.49-1.3l.3-.78c.18-.47.35-.93.53-1.38l.24-.61c.19-.51.39-1,.58-1.5l.15-.4.67-1.7v0a40.91,40.91,0,0,0-16.34-12c5-12.3-5-57.58-5-57.58,7.83,35.22-10.06,57-10.06,57L229,191.5c6.8-6.71-.09-25.16-.09-25.16,1.12,19-8.94,25.72-8.94,25.72L179,190.38c13.88-10.06,7.92-38,7.92-38-2.8,47.52-49.77,55.9-35.79,48.08,5.4-3,8.62-8.46,10.55-14h0s2.31-12.84-10-11.72S125,190.94,156.79,220c.62.57,1.22,1.18,1.82,1.8l0,0,.05,0c.44.47.88,1,1.32,1.45l.05.06a2.09,2.09,0,0,0,.14.17c.37.44.74.88,1.11,1.34a.86.86,0,0,0,.07.1,2.56,2.56,0,0,1,.2.26c.33.43.66.86,1,1.3l.09.12.25.35c.29.41.58.82.86,1.24l.11.17.31.47c.24.39.49.77.74,1.16l.12.2c.12.19.23.38.34.57.22.37.44.73.65,1.1,0,.08.09.16.14.24l.37.69c.2.36.41.73.6,1.1l.1.17.33.67.09.16c.19.38.38.75.57,1.14l0,.08c.14.28.27.57.4.85,0,0,0,.07.05.1.19.42.39.84.58,1.27.12.27.25.55.37.83a1.12,1.12,0,0,1,.05.13c.22.51.44,1,.65,1.54.08.19.16.37.23.56l.09.21c.2.51.4,1,.59,1.54l.2.51c0,.1.07.2.11.31.18.48.35,1,.53,1.47l.18.53c.05.13.09.27.14.4l.45,1.38.18.57c.06.17.11.34.16.51l.39,1.29.15.49.18.65c.13.46.25.92.38,1.38,0,.13.07.25.1.38l.15.6c.14.53.27,1.06.4,1.59l.06.25c.05.18.09.36.13.54.14.6.27,1.2.4,1.8l0,.13.09.44c.15.68.28,1.36.41,2h0v0c.2,1.05.39,2.1.56,3.15,0,.22.07.44.1.66v.06c.09.57.17,1.14.25,1.71,0,.26.08.52.11.78a.88.88,0,0,1,0,.17c.18,1.34.33,2.69.46,4l.06.69,0,.31c.05.56.09,1.12.13,1.69,0,.18,0,.37,0,.55s0,.18,0,.27c0,.62.07,1.24.1,1.85,0,.14,0,.28,0,.42a1.62,1.62,0,0,0,0,.22l.06,2v.45c0,.74,0,1.48,0,2.22V282c0,2.64-.14,5.26-.37,7.83,0,.06,0,.12,0,.18h0c-.1,1.11-.22,2.2-.36,3.29h0v0h0c14.76,7.68,27.91,11.72,39.59,13Z"/><path class="cls-16" d="M91.08,450c3.39,7.85,5.82,12.65,5.82,12.65l196.3,2.24s20.14-44.37,24.41-87Z"/><path class="cls-14" d="M250.76,214.53c1.12,2.87-14.7,57.12-14.7,57.12l20-13.25Z"/><path class="cls-17" d="M214.75,271.65s14.17,31.31,31.32,7.46"/><path class="cls-18" d="M212.73,220.09c-.49,6.42-5,11.12-8.91,10.82s-2-4-1.55-10.41.16-11.68,4.1-11.38S213.22,213.67,212.73,220.09Z"/><path class="cls-18" d="M285.28,222.68c-.37,4.8-3.7,8.31-6.66,8.08s-1.52-3-1.16-7.78.12-8.73,3.07-8.5S285.65,217.88,285.28,222.68Z"/><path class="cls-17" d="M209.86,214.47a10,10,0,0,0,10.08-7.76"/><path class="cls-17" d="M282.28,217.73a6.68,6.68,0,0,0,6.75-5.2"/><path class="cls-19" d="M212.78,339.93s5.25-13.42,30.47-18.24"/><path class="cls-20" d="M118.71,325.68s1.21,1.86,3.48,4.88"/><path class="cls-21" d="M129.93,340.06c23.19,26.28,79,72.09,135.57-11.39"/><path class="cls-20" d="M268.87,323.55c1.06-1.65,2.11-3.35,3.17-5.1"/><path class="cls-14" d="M152.46,209.53s-17.12-16.48-6.31-24.06S153.33,200.72,152.46,209.53Z"/><path class="cls-22" d="M336.82,325.68c-30.76-59.26-15.66-95.94-14.54-119S334,75.78,254.9,88.08c0,0-51-44-109.34,14.53C87.69,160.65,132.14,253,52.16,338S8,462.64,8,462.64H96.9s-24-47.42-26.44-88.68v0c.07-1.21.17-2.43.28-3.65l0-.39c.12-1.24.26-2.48.42-3.71a.59.59,0,0,0,0-.13c.15-1.11.32-2.21.51-3.32l.15-.83c.21-1.16.44-2.31.69-3.47a74.33,74.33,0,0,1,9.52-23.17c15.58-20.22,36.63-9.59,36.63-9.59,1.16.51,2.29,1,3.41,1.43l1.11.42c.73.28,1.47.56,2.18.81.43.15.85.28,1.28.41.63.21,1.28.43,1.9.62l1.32.36,1.75.46c.45.11.88.2,1.32.29s1.1.25,1.64.35l1.3.21,1.55.24,1.27.13c.5,0,1,.1,1.48.13s.82,0,1.23,0,.94,0,1.4,0,.8,0,1.2,0,.9,0,1.34-.05l1.15-.11c.43,0,.86-.08,1.28-.14s.74-.12,1.1-.18.82-.14,1.22-.23l1.06-.25c.39-.1.78-.2,1.17-.32l1-.32,1.11-.39,1-.39,1-.47.93-.46c.33-.17.67-.35,1-.54s.59-.34.87-.52.64-.4,1-.62.55-.38.83-.58l.9-.68c.26-.21.53-.42.78-.64s.57-.49.85-.75.5-.45.74-.69.54-.54.81-.81.46-.49.69-.75.51-.58.76-.87l.65-.79.71-.94.6-.84c.23-.32.44-.66.66-1s.38-.57.56-.87.42-.7.62-1.06.35-.6.52-.91l.57-1.11c.16-.31.32-.62.47-.94s.36-.78.54-1.18l.42-1c.17-.41.33-.82.49-1.24s.26-.65.38-1,.31-.87.46-1.3.23-.66.33-1,.28-.92.42-1.38.2-.65.29-1c.13-.49.26-1,.38-1.49.08-.31.17-.62.24-.93.13-.54.24-1.1.36-1.65.06-.27.13-.55.18-.83.14-.68.26-1.38.38-2.08,0-.15.06-.3.08-.45.14-.86.27-1.72.39-2.59h0v0q.21-1.63.36-3.3c0-.25.05-.51.07-.76.08-1,.15-2.06.21-3.1,0-.07,0-.14,0-.21s0,.14,0,.21a.76.76,0,0,1,0-.15v-.07h0a.34.34,0,0,1,0-.1c0-.48,0-1,0-1.44l0-1.06c0-.48,0-.95,0-1.43v-1.08c0-.48,0-1,0-1.43s0-.73,0-1.1,0-.95-.05-1.43,0-.74-.05-1.1,0-1-.08-1.44-.06-.72-.08-1.09-.07-1-.12-1.46c0-.31-.06-.63-.09-.95-.1-1-.2-2-.32-2.95,0-.33-.08-.67-.13-1s-.13-.93-.19-1.39l-.18-1.16c-.07-.45-.14-.9-.22-1.34s-.13-.79-.2-1.19-.16-.88-.25-1.32-.15-.8-.23-1.2l-.27-1.28-.27-1.22c-.09-.42-.19-.84-.29-1.25s-.2-.84-.31-1.26l-.3-1.18c-.12-.47-.25-.93-.38-1.39s-.19-.69-.28-1c-.23-.77-.46-1.54-.7-2.29-.1-.33-.2-.64-.31-1-.15-.47-.3-.93-.46-1.39l-.36-1c-.15-.43-.3-.86-.46-1.29l-.39-1c-.16-.41-.32-.83-.49-1.24s-.27-.67-.41-1-.34-.83-.52-1.24l-.42-.94c-.19-.42-.38-.84-.58-1.26s-.26-.57-.4-.85c-.23-.47-.46-.93-.7-1.38l-.33-.67c-.35-.67-.71-1.32-1.07-2l-.26-.43c-.28-.5-.57-1-.87-1.48-.14-.23-.28-.45-.43-.67-.24-.39-.49-.78-.74-1.16s-.32-.48-.49-.71-.48-.71-.73-1l-.51-.7c-.25-.33-.5-.66-.76-1l-.52-.66c-.27-.32-.53-.64-.8-1s-.34-.4-.52-.59l-.9-1-.45-.47c-.46-.47-.92-.92-1.39-1.35-31.82-29.07-17.38-44.16-5.08-45.28s10,11.72,10,11.72h0c-1.93,5.54-5.15,11-10.55,14-14,7.82,33-.56,35.79-48.08,0,0,6,27.95-7.92,38l40.92,1.68s10.06-6.71,8.94-25.72c0,0,6.89,18.45.09,25.16l49.69-1.12s17.89-21.8,10.06-57c0,0,10.07,45.28,5,57.58a40.91,40.91,0,0,1,16.34,12c-3.9,10-9.13,23.59-14.66,42.22-7.93,26.72-31.16,66.51-78.51,61.21h0l.77.51s-5.59,16.55,2.24,24.38c0,0,87.24-36.34,96.74,12.3,8.53,43.6-17.11,106.52-22.51,119.07h61.66S367.57,384.94,336.82,325.68Z"/><path class="cls-23" d="M336.82,325.68c-30.76-59.26-15.66-95.94-14.54-119S334,75.78,254.9,88.08c0,0-51-44-109.34,14.53C87.69,160.65,132.14,253,52.16,338S8,462.64,8,462.64H96.9s-24-47.42-26.44-88.68v0c.07-1.21.17-2.43.28-3.65l0-.39c.12-1.24.26-2.48.42-3.71a.59.59,0,0,0,0-.13c.15-1.11.32-2.21.51-3.32l.15-.83c.21-1.16.44-2.31.69-3.47a74.33,74.33,0,0,1,9.52-23.17c15.58-20.22,36.63-9.59,36.63-9.59,1.16.51,2.29,1,3.41,1.43l1.11.42c.73.28,1.47.56,2.18.81.43.15.85.28,1.28.41.63.21,1.28.43,1.9.62l1.32.36,1.75.46c.45.11.88.2,1.32.29s1.1.25,1.64.35l1.3.21,1.55.24,1.27.13c.5,0,1,.1,1.48.13s.82,0,1.23,0,.94,0,1.4,0,.8,0,1.2,0,.9,0,1.34-.05l1.15-.11c.43,0,.86-.08,1.28-.14s.74-.12,1.1-.18.82-.14,1.22-.23l1.06-.25c.39-.1.78-.2,1.17-.32l1-.32,1.11-.39,1-.39,1-.47.93-.46c.33-.17.67-.35,1-.54s.59-.34.87-.52.64-.4,1-.62.55-.38.83-.58l.9-.68c.26-.21.53-.42.78-.64s.57-.49.85-.75.5-.45.74-.69.54-.54.81-.81.46-.49.69-.75.51-.58.76-.87l.65-.79.71-.94.6-.84c.23-.32.44-.66.66-1s.38-.57.56-.87.42-.7.62-1.06.35-.6.52-.91l.57-1.11c.16-.31.32-.62.47-.94s.36-.78.54-1.18l.42-1c.17-.41.33-.82.49-1.24s.26-.65.38-1,.31-.87.46-1.3.23-.66.33-1,.28-.92.42-1.38.2-.65.29-1c.13-.49.26-1,.38-1.49.08-.31.17-.62.24-.93.13-.54.24-1.1.36-1.65.06-.27.13-.55.18-.83.14-.68.26-1.38.38-2.08,0-.15.06-.3.08-.45.14-.86.27-1.72.39-2.59h0v0q.21-1.63.36-3.3c0-.25.05-.51.07-.76.08-1,.15-2.06.21-3.1,0-.07,0-.14,0-.21s0,.14,0,.21a.76.76,0,0,1,0-.15v-.07h0a.34.34,0,0,1,0-.1c0-.48,0-1,0-1.44l0-1.06c0-.48,0-.95,0-1.43v-1.08c0-.48,0-1,0-1.43s0-.73,0-1.1,0-.95-.05-1.43,0-.74-.05-1.1,0-1-.08-1.44-.06-.72-.08-1.09-.07-1-.12-1.46c0-.31-.06-.63-.09-.95-.1-1-.2-2-.32-2.95,0-.33-.08-.67-.13-1s-.13-.93-.19-1.39l-.18-1.16c-.07-.45-.14-.9-.22-1.34s-.13-.79-.2-1.19-.16-.88-.25-1.32-.15-.8-.23-1.2l-.27-1.28-.27-1.22c-.09-.42-.19-.84-.29-1.25s-.2-.84-.31-1.26l-.3-1.18c-.12-.47-.25-.93-.38-1.39s-.19-.69-.28-1c-.23-.77-.46-1.54-.7-2.29-.1-.33-.2-.64-.31-1-.15-.47-.3-.93-.46-1.39l-.36-1c-.15-.43-.3-.86-.46-1.29l-.39-1c-.16-.41-.32-.83-.49-1.24s-.27-.67-.41-1-.34-.83-.52-1.24l-.42-.94c-.19-.42-.38-.84-.58-1.26s-.26-.57-.4-.85c-.23-.47-.46-.93-.7-1.38l-.33-.67c-.35-.67-.71-1.32-1.07-2l-.26-.43c-.28-.5-.57-1-.87-1.48-.14-.23-.28-.45-.43-.67-.24-.39-.49-.78-.74-1.16s-.32-.48-.49-.71-.48-.71-.73-1l-.51-.7c-.25-.33-.5-.66-.76-1l-.52-.66c-.27-.32-.53-.64-.8-1s-.34-.4-.52-.59l-.9-1-.45-.47c-.46-.47-.92-.92-1.39-1.35-31.82-29.07-17.38-44.16-5.08-45.28s10,11.72,10,11.72h0c-1.93,5.54-5.15,11-10.55,14-14,7.82,33-.56,35.79-48.08,0,0,6,27.95-7.92,38l40.92,1.68s10.06-6.71,8.94-25.72c0,0,6.89,18.45.09,25.16l49.69-1.12s17.89-21.8,10.06-57c0,0,10.07,45.28,5,57.58a40.91,40.91,0,0,1,16.34,12c-3.9,10-9.13,23.59-14.66,42.22-7.93,26.72-31.16,66.51-78.51,61.21h0l.77.51s-5.59,16.55,2.24,24.38c0,0,87.24-36.34,96.74,12.3,8.53,43.6-17.11,106.52-22.51,119.07h61.66S367.57,384.94,336.82,325.68Z"/><path class="cls-12" d="M335.2,322.49l-.48-1c-.36-.75-.72-1.49-1.07-2.23-.17-.35-.34-.7-.5-1.05-.36-.75-.7-1.5-1-2.25-.13-.28-.27-.57-.4-.86-.45-1-.9-2-1.33-3l-.18-.41c-.37-.87-.72-1.73-1.07-2.59l-.39-1c-.28-.69-.55-1.38-.81-2.06-.13-.33-.25-.65-.38-1-.28-.75-.56-1.49-.82-2.23-.09-.23-.18-.46-.26-.69-.34-1-.68-1.91-1-2.86-.07-.19-.13-.39-.2-.59-.25-.75-.49-1.5-.73-2.24-.1-.3-.19-.6-.28-.9-.21-.65-.41-1.31-.6-1.95-.09-.29-.18-.59-.26-.87-.23-.77-.45-1.53-.65-2.29,0-.15-.09-.29-.13-.44-.24-.9-.48-1.8-.71-2.7l-.15-.63c-.17-.69-.34-1.36-.49-2-.07-.27-.13-.54-.19-.82-.15-.63-.29-1.27-.42-1.9-.06-.24-.11-.49-.16-.73-.18-.85-.35-1.7-.51-2.54h0c-.16-.87-.31-1.72-.46-2.57,0-.2-.06-.4-.1-.6l-.3-1.92c0-.24-.07-.47-.1-.71-.1-.64-.19-1.28-.27-1.91,0-.18-.05-.36-.07-.54-.21-1.64-.39-3.25-.53-4.83,0-.18,0-.35-.05-.53l-.15-1.86c0-.19,0-.37,0-.56l-.12-2c0-.1,0-.19,0-.29-.08-1.55-.13-3.08-.16-4.59,0-.13,0-.26,0-.39,0-.63,0-1.26,0-1.88v-.37c0-2.23.06-4.41.15-6.52,0-.08,0-.15,0-.22,0-.67.06-1.33.1-2v-.1q.19-3.21.49-6.24a111,111,0,0,0-7.77-36.38l-1.1.53c.2.24.41.47.61.72-3.9,10-9.13,23.59-14.66,42.22-7.93,26.72-31.16,66.51-78.51,61.21h0l.77.51s-5.59,16.55,2.24,24.38c0,0,87.24-36.34,96.74,12.3,8.53,43.6-17.11,106.52-22.51,119.07h61.66s9-59.49-9.37-114.06c-1.64-4.88-3.49-9.71-5.59-14.46-.42-.95-.85-1.89-1.29-2.84q-1.32-2.82-2.76-5.6C336.26,324.61,335.72,323.55,335.2,322.49Z"/><path class="cls-24" d="M178,286c0,.07,0,.13,0,.2h0C178,286.09,178,286,178,286Z"/><path class="cls-24" d="M125.41,328.34c.43.15.85.28,1.28.41.63.21,1.28.43,1.9.62l1.32.36,1.75.46c.45.11.88.2,1.32.29s1.1.25,1.64.35l1.3.21,1.55.24,1.27.13c.5,0,1,.1,1.48.13s.82,0,1.23,0,.94,0,1.4,0,.8,0,1.2,0,.9,0,1.34-.05l1.15-.11c.43,0,.86-.08,1.28-.14s.74-.12,1.1-.18.82-.14,1.22-.23l1.06-.25c.39-.1.78-.2,1.17-.32l1-.32,1.11-.39,1-.39,1-.47.93-.46c.33-.17.67-.35,1-.54s.59-.34.87-.52.64-.4,1-.62.55-.38.83-.58l.9-.68c.26-.21.53-.42.78-.64s.57-.49.85-.75.5-.45.74-.69.54-.54.81-.81.46-.49.69-.75.51-.58.76-.87l.65-.79.71-.94.6-.84c.23-.32.44-.66.66-1s.38-.57.56-.87.42-.7.62-1.06.35-.6.52-.91l.57-1.11c.16-.31.32-.62.47-.94s.36-.78.54-1.18l.42-1c.17-.41.33-.82.49-1.24s.26-.65.38-1,.31-.87.46-1.3.23-.66.33-1,.28-.92.42-1.38.2-.65.29-1c.13-.49.26-1,.38-1.49.08-.31.17-.62.24-.93.13-.54.24-1.1.36-1.65.06-.27.13-.55.18-.83.14-.68.26-1.38.38-2.08,0-.15.06-.3.08-.45.14-.86.27-1.72.39-2.59h0v0q.21-1.63.36-3.3c0-.25.05-.51.07-.76.08-1,.15-2.06.21-3.1h0a.66.66,0,0,1,0-.14v-.07h0a.34.34,0,0,1,0-.1c0-.48,0-1,0-1.44l0-1.06c0-.48,0-.95,0-1.43v-1.08c0-.48,0-1,0-1.43s0-.73,0-1.1,0-.95-.05-1.43c-11.37,56.69-55.88,50.24-55.88,50.24l1.11.42C124,327.81,124.7,328.09,125.41,328.34Z"/><path class="cls-5" d="M56.67,350.41c80-85,35.53-177.32,93.39-235.37C208.4,56.53,259.4,100.51,259.4,100.51c31.75-4.93,49,9.47,58.3,30-7.64-26.67-24.94-48.3-62.8-42.41,0,0-51-44-109.34,14.53C87.69,160.65,132.14,253,52.16,338-14.1,408.39-.88,447.71,5.59,459.12,1.76,440.29,5.72,404.54,56.67,350.41Z"/><path class="cls-25" d="M178,286c0,.07,0,.13,0,.2h0C178,286.09,178,286,178,286Z"/><path class="cls-25" d="M347.25,351c17.3,53.9,8.58,111.65,8.58,111.65h5.81C363.35,440.62,364.38,393.08,347.25,351Z"/><path class="cls-13" d="M178,285.94c0,.07,0,.15,0,.22s0-.14,0-.22Z"/><path class="cls-13" d="M313.52,334.44l1.23,2.6C314.37,336.13,314,335.27,313.52,334.44Z"/><path class="cls-5" d="M313.41,334.21v0c0,.07.07.14.11.2Z"/><path class="cls-5" d="M316.68,343.57a34.47,34.47,0,0,0-1.93-6.53l-1.23-2.6c0-.06-.07-.13-.11-.2C329,394.86,276.8,464.69,276.8,464.69h16.48C295.07,460.69,325.91,390.8,316.68,343.57Z"/></g><polygon class="cls-26" points="158.84 28.03 33.36 28.03 33.36 92.52 158.84 28.03"/><polygon class="cls-27" points="33.36 125.56 223.1 28.03 202.97 28.03 33.36 115.21 33.36 125.56"/></g></g></svg>