<svg xmlns="http://www.w3.org/2000/svg" viewBox="0 0 29.94 22.87"><defs><style>.cls-1{fill:#f2b05e;}</style></defs><title>QuotationMark_Top</title><g id="Layer_2" data-name="Layer 2"><g id="Layer_1-2" data-name="Layer 1"><path class="cls-1" d="M7.59,6.15a11.17,11.17,0,0,0-2,5.13A5.21,5.21,0,0,1,9.64,13a6,6,0,0,1,1.43,4.1A5.46,5.46,0,0,1,9.64,21a5.08,5.08,0,0,1-4.1,1.85A5,5,0,0,1,1.33,21,6,6,0,0,1,0,17.12,17.48,17.48,0,0,1,3.08,6.87,26.82,26.82,0,0,1,10.87,0L12.1,1.33A20.23,20.23,0,0,0,7.59,6.15Zm17.84,0a11.28,11.28,0,0,0-2.05,5.13A5.19,5.19,0,0,1,27.48,13a6,6,0,0,1,1.44,4.1A5.46,5.46,0,0,1,27.48,21a5.06,5.06,0,0,1-4.1,1.85A5.2,5.2,0,0,1,19.17,21a6,6,0,0,1-1.33-3.9A17.48,17.48,0,0,1,20.92,6.87,27,27,0,0,1,28.71,0l1.23,1.33A20.23,20.23,0,0,0,25.43,6.15Z"/></g></g></svg>