<svg width="1078" height="377" viewBox="0 0 1078 377" fill="none" xmlns="http://www.w3.org/2000/svg">
<g clip-path="url(#clip0_72_52)">
<path d="M1078 57.9297V34.658C1058.8 34.658 1043.25 19.1159 1043.25 -0.0831299H694.532V8.22816C694.532 9.39174 693.618 10.306 692.454 10.306V23.2716C693.618 23.2716 694.532 24.1858 694.532 25.3494V42.4707C694.532 43.6342 693.618 44.5485 692.454 44.5485V57.5141C693.618 57.5141 694.532 58.4283 694.532 59.5919V76.7132C694.532 77.8767 693.618 78.791 692.454 78.791V91.7566C693.618 91.7566 694.532 92.6708 694.532 93.8344V110.956C694.532 112.119 693.618 113.033 692.454 113.033V126.332C693.618 126.332 694.532 127.246 694.532 128.409V145.531C694.532 146.694 693.618 147.608 692.454 147.608V160.574C693.618 160.574 694.532 161.488 694.532 162.652V179.773C694.532 180.937 693.618 181.851 692.454 181.851V194.817C693.618 194.817 694.532 195.731 694.532 196.894V214.016C694.532 215.179 693.618 216.093 692.454 216.093V229.059C693.618 229.059 694.532 229.973 694.532 231.137V248.258C694.532 249.422 693.618 250.336 692.454 250.336V263.302C693.618 263.302 694.532 264.216 694.532 265.379V282.501C694.532 283.664 693.618 284.578 692.454 284.578V297.544C693.618 297.544 694.532 298.458 694.532 299.622V316.743C694.532 317.907 693.618 318.821 692.454 318.821V331.787C693.618 331.787 694.532 332.701 694.532 333.864V351.567C694.532 352.731 693.618 353.645 692.454 353.645V366.611C693.618 366.611 694.532 367.525 694.532 368.689V377H1043.25C1043.25 357.801 1058.8 342.259 1078 342.259V318.987C1071.02 316.743 1065.95 310.177 1065.95 302.365C1065.95 294.552 1071.02 288.069 1078 285.742V261.972C1071.02 259.728 1065.95 253.162 1065.95 245.349C1065.95 237.62 1071.02 231.054 1078 228.727V204.956C1071.02 202.712 1065.95 196.146 1065.95 188.334C1065.95 180.521 1071.02 174.038 1078 171.711V147.941C1071.02 145.697 1065.95 139.131 1065.95 131.318C1065.95 123.589 1071.02 117.023 1078 114.696V90.9255C1071.02 88.6814 1065.95 82.1155 1065.95 74.3029C1065.95 66.4903 1071.02 60.2568 1078 57.9297Z" fill="white"/>
<path d="M690.376 377V368.689C690.376 367.525 691.29 366.611 692.454 366.611V353.645C691.29 353.645 690.376 352.731 690.376 351.567V334.446C690.376 333.283 691.29 332.368 692.454 332.368V319.403C691.29 319.403 690.376 318.489 690.376 317.325V300.037C690.376 298.874 691.29 297.96 692.454 297.96V284.994C691.29 284.994 690.376 284.08 690.376 282.916V265.795C690.376 264.631 691.29 263.717 692.454 263.717V250.752C691.29 250.752 690.376 249.837 690.376 248.674V231.552C690.376 230.389 691.29 229.475 692.454 229.475V216.509C691.29 216.509 690.376 215.595 690.376 214.431V197.31C690.376 196.146 691.29 195.232 692.454 195.232V182.017C691.29 182.017 690.376 181.103 690.376 179.939V162.818C690.376 161.655 691.29 160.74 692.454 160.74V147.775C691.29 147.775 690.376 146.86 690.376 145.697V128.576C690.376 127.412 691.29 126.498 692.454 126.498V113.532C691.29 113.532 690.376 112.618 690.376 111.454V94.3331C690.376 93.1695 691.29 92.2553 692.454 92.2553V79.0403C691.29 79.0403 690.376 78.1261 690.376 76.9625V59.7582C690.376 58.5946 691.29 57.6803 692.454 57.6803V44.7147C691.29 44.7147 690.376 43.8005 690.376 42.6369V25.4325C690.376 24.269 691.29 23.3547 692.454 23.3547V10.3891C691.29 10.3891 690.376 9.47487 690.376 8.31129V0H0V377H690.376Z" fill="#D94B19"/>
<g clip-path="url(#clip1_72_52)">
<path d="M590.243 232.261L463.704 483.218C467.193 484.282 470.682 485.247 474.212 486.033L598.754 239.035C596.003 236.705 593.173 234.434 590.243 232.261Z" fill="#81A6C0"/>
<path d="M633.123 283.228L530.159 487.43C534.686 486.633 539.173 485.619 543.621 484.386L638.68 295.861C637.026 291.552 635.174 287.341 633.123 283.228Z" fill="#81A6C0"/>
<path d="M394.971 256.844L367.324 311.675C364.593 322.414 363.151 333.257 362.92 344.064L418.394 234.045C409.862 240.618 401.982 248.263 394.971 256.844Z" fill="#81A6C0"/>
<path d="M606.193 245.964L484.186 487.934C487.934 488.483 491.722 488.954 495.472 489.205L613.926 254.282C611.494 251.418 608.884 248.612 606.193 245.964Z" fill="#81A6C0"/>
<path d="M620.606 262.716L506.224 489.562C510.312 489.538 514.38 489.355 518.448 488.973L627.401 272.894C625.288 269.396 623.017 266.017 620.606 262.716Z" fill="#81A6C0"/>
<path d="M554.251 212.971L426.794 465.749C429.744 467.683 432.774 469.558 435.923 471.295L564.139 217.013C560.85 215.553 557.56 214.193 554.251 212.971Z" fill="#81A6C0"/>
<path d="M434.836 223.119L363.931 363.741C364.647 369.613 365.701 375.408 367.112 381.085L450.673 215.364C445.27 217.605 439.984 220.203 434.836 223.119Z" fill="#81A6C0"/>
<path d="M534.249 207.304L410.325 453.075C413.036 455.484 415.826 457.835 418.736 460.047L544.856 209.922C541.347 208.897 537.798 208.051 534.249 207.304Z" fill="#81A6C0"/>
<path d="M464.021 210.575L371.178 394.705C372.732 399.113 374.564 403.463 376.535 407.734L477.682 207.135C473.096 208.05 468.489 209.203 464.021 210.575Z" fill="#81A6C0"/>
<path d="M512.769 204.568L395.352 437.432C397.744 440.376 400.295 443.201 402.965 445.988L524.174 205.601C520.346 205.111 516.558 204.74 512.769 204.568Z" fill="#81A6C0"/>
<path d="M489.553 205.275L382.137 418.305C384.21 421.882 386.421 425.381 388.792 428.761L501.916 204.408C497.769 204.552 493.661 204.814 489.553 205.275Z" fill="#81A6C0"/>
<path d="M572.896 221.329L444.58 475.809C447.829 477.348 451.099 478.749 454.389 480.01L582.105 226.718C579.135 224.823 576.065 223.027 572.896 221.329Z" fill="#81A6C0"/>
<path d="M648.195 344.008L587.99 463.409C595.566 458.043 602.668 451.942 609.157 445.084L646.047 371.923C647.702 362.628 648.385 353.29 648.195 344.008Z" fill="#81A6C0"/>
<path d="M643.005 308.966L556.709 480.111C561.993 478.108 567.159 475.747 572.167 473.108L646.585 325.519C645.729 319.923 644.536 314.406 643.005 308.966Z" fill="#81A6C0"/>
</g>
<g clip-path="url(#clip2_72_52)">
<path d="M587.757 69.3989L516.407 89.255L536.263 160.605L607.613 140.748L587.757 69.3989Z" stroke="white" stroke-miterlimit="10"/>
</g>
</g>
<g clip-path="url(#clip3_72_52)">
<path d="M604.5 325.723C664.27 325.723 712.723 274.136 712.723 210.5C712.723 146.864 664.27 95.277 604.5 95.277C544.73 95.277 496.276 146.864 496.276 210.5C496.276 274.136 544.73 325.723 604.5 325.723Z" stroke="white" stroke-miterlimit="10"/>
</g>
<path d="M42.1172 0H0V376.521H42.1172V0Z" fill="#6D260D"/>
<defs>
<clipPath id="clip0_72_52">
<rect width="1078" height="377" fill="white"/>
</clipPath>
<clipPath id="clip1_72_52">
<rect width="276" height="285" fill="white" transform="translate(445.315 157) rotate(26.7584)"/>
</clipPath>
<clipPath id="clip2_72_52">
<rect width="103.453" height="103.453" fill="white" transform="translate(556.916 42) rotate(41.0333)"/>
</clipPath>
<clipPath id="clip3_72_52">
<rect width="217" height="231" fill="white" transform="translate(496 95)"/>
</clipPath>
</defs>
</svg>
