<svg width="44" height="19" viewBox="0 0 44 19" fill="none" xmlns="http://www.w3.org/2000/svg">
<path d="M41.6999 8H1.3999V10.7H41.6999V8Z" fill="#81A6C0"/>
<path d="M40.8999 10.3L33.3999 2.80003C32.8999 2.30003 32.8999 1.40002 33.3999 0.900024C33.8999 0.400024 34.7999 0.400024 35.2999 0.900024L42.7999 8.40002C43.2999 8.90002 43.2999 9.80003 42.7999 10.3C42.2999 10.8 41.4999 10.8 40.8999 10.3Z" fill="#81A6C0"/>
<path d="M42.9 10.3L35.4 17.8C34.9 18.3 34 18.3 33.5 17.8C33 17.3 33 16.4 33.5 15.9L41 8.40002C41.5 7.90002 42.4 7.90002 42.9 8.40002C43.4 8.90002 43.4 9.80003 42.9 10.3Z" fill="#81A6C0"/>
<path d="M2.2999 10.3L9.7999 2.80003C10.2999 2.30003 10.2999 1.40002 9.7999 0.900024C9.2999 0.400024 8.3999 0.400024 7.8999 0.900024L0.399902 8.40002C-0.100098 8.90002 -0.100098 9.80003 0.399902 10.3C0.899902 10.8 1.7999 10.8 2.2999 10.3Z" fill="#81A6C0"/>
<path d="M0.399902 10.3L7.8999 17.8C8.3999 18.3 9.2999 18.3 9.7999 17.8C10.2999 17.3 10.2999 16.4 9.7999 15.9L2.2999 8.40002C1.7999 7.90002 0.899902 7.90002 0.399902 8.40002C-0.100098 8.90002 -0.100098 9.80003 0.399902 10.3Z" fill="#81A6C0"/>
</svg>
